<svg xmlns="http://www.w3.org/2000/svg" width="278" height="278"><path d="M138.616 2.44C62.642 2.44 1.055 64.027 1.055 140s61.587 137.56 137.56 137.56S276.178 215.974 276.178 140 214.588 2.44 138.616 2.44m0 267.682C66.75 270.12 8.495 211.866 8.495 140S66.75 9.88 138.616 9.88 268.736 68.136 268.736 140s-58.26 130.12-130.12 130.12" fill="#ba9760"/><path d="M260.947 140c0 67.562-54.77 122.33-122.333 122.33S16.286 207.563 16.286 140 71.054 17.67 138.614 17.67 260.947 72.44 260.947 140" fill="#304423"/><path d="M224.975 140h24.963c0-61.48-49.84-111.32-111.32-111.32S27.297 78.52 27.297 140h197.678z" fill="#fcb23b"/><path d="M212.047 108.134l-11.3-19.544c-2.978-5.146-7.852-5.146-10.828 0l-4.394 6.775-15.734-27.137c-.432-.745-.898-1.395-1.38-1.983 5.53-6.04 13.48-9.83 22.314-9.83 16.7 0 30.255 13.546 30.255 30.256.001 8.4-3.418 15.98-8.932 21.462" fill="#f15623"/><g fill="#304423"><path d="M88.317 129.022l1.143-.12-6.5-21.52-3.94 14.016 1.276.08-3.738 11.108-4.264-12.675 1.404-.084-4.337-15.448-7.166 23.718 1.262.133-4.4 11.68-2.77-8.23 1.108-.07-3.417-12.167-5.58 18.465-1.256-3.342 1.3-.137-7.438-24.617-4.507 16.034 1.46.1-4.92 14.628 1.432.168-4.945 10.747c5.725-1.807 12.966-3.142 21.082-3.815-.001-.055-.015-.117-.015-.18 0-4.628 12 1.26 25.377-.128-.044-.172 12.563 2.807-.073-.53-2.977-.787 10.93-3.713 19.803-4.646l-7.392-13.155zm-39 9.206l-.402 1.074-.433-1.158.835.084zm163.28 3.267c5.956.626 15.3 2.6 13.293 3.12-8.482 2.24-.02.24-.05.356 8.98.93 17.033-3.02 17.033.086 0 .042-.008.084-.01.12 5.448.45 10.3 1.348 14.15 2.56l-3.32-7.214.96-.113-3.302-9.82.98-.06-3.023-10.762-4.993 16.523.88.093-.844 2.242-3.745-12.395-2.294 8.167.745.047-1.858 5.524-2.953-7.84.846-.1-4.8-15.92-2.9 10.37.942.057-2.86 8.508-2.5-7.457.856-.053-2.645-9.4-4.362 14.447.767.08-4.962 8.835zm31.694-2.708l-.3.778-.27-.72.56-.057z"/><path d="M140.776 141.87h-36.608l29.035-50.576c3.194-5.528 8.426-5.528 11.623 0l1.213 2.097-3.123 10.992L156.8 80.556c3.78-6.538 9.964-6.538 13.746 0l13.07 22.6-3.207 11.247 8.768-14.998c2.756-4.765 7.267-4.765 10.02 0l21.324 36.87 3.747 5.595"/></g><path d="M44.965 153.07l-7.245 45.275h6.534l1.23-8.218h8.73l1.23 8.218h7.18L55.38 153.07H44.965zm1.424 30.918l3.426-22.897 3.428 22.897H46.4zM75.04 190l-5.433-36.93h-7.18l6.987 45.275H80.02l6.987-45.275h-6.534zm15.264 8.34h19.4v-6.464H97.417v-13.262h9.766v-6.465h-9.766v-12.6h12.288v-6.47h-19.4zm39.968-18.17l-7.307-27.1h-8.924v45.275h6.4V165.55l8.862 32.795h7.308V153.07h-6.34zm9.378-20.632h7.437v38.802h7.114v-38.802h7.44v-6.47h-22zm39.26 28.46c0 1.637-.334 2.78-1.005 3.427s-1.562.97-2.68.97c-1.125 0-2.016-.324-2.687-.97s-1.002-1.8-1.002-3.427V153.07h-7.115v34.472c0 3.667.895 6.48 2.687 8.44s4.43 2.944 7.922 2.944 6.133-.982 7.924-2.944 2.683-4.773 2.683-8.44V153.07h-6.726v34.928zm32.92 4.846v-6.982c0-2.37-.336-4.387-1.005-6.05s-1.906-2.856-3.718-3.587c3.106-1.468 4.658-4.528 4.658-9.186v-3.558c0-3.5-.83-6.1-2.5-7.827s-4.345-2.586-8.054-2.586h-10.736v45.275h7.114V179.9h2.457c1.64 0 2.823.43 3.56 1.293s1.102 2.353 1.102 4.463v7.115l.03 2.265c.02.603.065 1.096.13 1.486s.14.712.227.968.17.54.26.844h7.244a9.44 9.44 0 0 1-.646-2.557c-.088-.835-.13-1.818-.13-2.943zm-7.18-24.185c0 1.812-.378 3.06-1.133 3.75s-1.8 1.033-3.135 1.033H197.6v-13.904h3.43c1.247 0 2.165.365 2.748 1.1s.873 1.92.873 3.558v4.462zm27.617-15.588h-10.415l-7.242 45.275h6.532l1.228-8.218h8.734l1.228 8.218h7.177l-7.242-45.275zm-9 30.918l3.428-22.897 3.426 22.897h-6.854zm-63.613 24.642c-.863 3.5-1.862 6.217-2.994 8.123-.522.898-1.038 1.348-1.538 1.348-.2 0-.443-.044-.73-.132-1.368-.416-2.047-.9-2.047-1.486 0-.285.187-.475.564-.563 1.583-2.378 2.518-5.23 2.805-8.558-.988-.88-1.925-1.318-2.805-1.318-1.872-.02-4.086 1.625-6.637 4.935-2.36 3.097-4.4 6.764-6.125 11.012-1.8 4.423-2.663 8.108-2.6 11.06.015 1.7.528 2.987 1.538 3.83.733.6 1.57.917 2.5.917.54 0 1.158-.1 1.86-.325 1.728-.537 3.724-1.578 6-3.126 2.157-1.476 3.958-2.977 5.395-4.508.45-.485.72-1.106.812-1.858.053-.398.23-.596.536-.596.256 0 .444.16.57.486.645 1.617.97 2.742.97 3.37 0 .595-.243 1.15-.727 1.673-.323.324-1.1.945-2.294 1.862-3.813 2.86-7.1 4.64-9.82 5.34-.848.22-1.62.325-2.32.325-1.474 0-2.6-.497-3.373-1.483-3.5-1.314-5.26-3.32-5.26-6.016 0-4.354 1.143-9.028 3.428-14.032 1.96-4.335 4.38-8.148 7.257-11.44 2.77-3.148 5.02-4.784 6.746-4.912.628-.05 1.356.208 2.185.78.1.073.945.75 2.5 2.023.092-.72.332-1.077.73-1.077.433 0 1.16.395 2.187 1.188.646.504.97 1 .97 1.457-.002.305-.1.87-.298 1.697m6.8 12.768c-.43 2.43-1.556 6.465-3.375 12.115.522-.468 1.244-1.325 2.162-2.563.124-.16.25-.245.376-.245.287 0 .324.256.1.756-.092.197-.848 1.43-2.27 3.696-1.08 1.728-1.87 3.258-2.374 4.588-.162.412-.458.62-.892.62s-1.017-.2-1.753-.62c-.467-.25-.7-.438-.7-.563 0-.1.097-.348.296-.705.968-1.7 2.05-4.57 3.238-8.58 1.132-3.887 1.768-6.775 1.913-8.66.055-.8-.027-1.22-.242-1.22-.16 0-.45.2-.864.595l-1.673 1.567c-.592.54-.9.57-.9.08 0-.143.08-.325.245-.537.844-1.2 1.742-2.315 2.695-3.374.287-.308.566-.46.84-.46.284 0 .7.197 1.267.592.827.22 1.286.354 1.376.4.414.252.62.72.62 1.402.002.322-.035.695-.106 1.107m3.804-11.815c.287.212.432.457.432.728 0 .52-.773 1.333-2.32 2.425-1.022.7-2.013.957-2.966.756a3.5 3.5 0 0 1-1.402-.592c-.126-.1-.222-.22-.283-.34s-.08-.212-.042-.28c.057-.073.162-.092.325-.056 1.654-1.438 2.74-2.473 3.265-3.104.413-.464.7-.7.9-.7.324-.001 1.023.386 2.102 1.164m16.516 12.19c-1.653 4.587-2.795 8.437-3.425 11.55.27-.252.625-.64 1.064-1.162s.716-.825.822-.916c.254-.322.522-.486.813-.486.267 0 .403.136.403.405 0 .165-.072.35-.217.566-1.7 2.502-2.816 5.03-3.37 7.582-.163.72-.404 1.078-.73 1.078-.3 0-.875-.285-1.7-.862-.486-.325-.764-.592-.837-.8-.1-.193-.1-.592 0-1.184.756-4.57 1.7-8.367 2.833-11.388-1.565 2.534-3.698 5.34-6.396 8.418-2.354 2.682-4.055 4.4-5.1 5.125-.757.525-1.332.785-1.726.785-.325 0-.82-.26-1.483-.785-.957-.574-1.432-1.366-1.432-2.374 0-.197.02-.42.053-.676.323-2.66 1.494-5.76 3.508-9.292s4.327-6.516 6.937-8.944c.844-.8 1.6-1.177 2.266-1.162.646.037 1.878.892 3.696 2.564.16.143.24.296.24.456 0 .3-.188.432-.565.432a.95.95 0 0 1-.406-.081c-1.278-.536-2.303-.52-3.075.06-1.692 1.242-3.56 3.423-5.6 6.557-2.376 3.594-3.806 6.833-4.3 9.7a2.32 2.32 0 0 0-.027.351c0 .45.18.673.54.673.6 0 1.34-.42 2.186-1.268 2.017-1.962 4.173-4.423 6.476-7.4 2.357-3.08 3.868-5.398 4.534-6.966.484-1.15.8-1.96.942-2.43.236-.807.5-1.212.758-1.212s.896.368 1.9 1.106c.415.303.636.584.674.836.036.217-.047.597-.245 1.134m-61.084 20.944c-.435.628-1.165 1.388-2.195 2.283-1.176 1.044-2.035 1.566-2.57 1.566-2.03 0-5.7-5.526-10.987-16.578-.267.015-.5.022-.668.022-.674 0-1.008-.143-1.008-.424 0-.27.296-.716.896-1.345a38.56 38.56 0 0 1-1.1-2.436v-.048c-6.503 4.938-9.97 8.726-10.402 11.366-.104.58.104.964.626 1.14.387.135.88.157 1.476.07 2.416-.416 4.982-1.566 7.696-3.448.227-.16.404-.427.537-.792s.353-.64.648-.814c.732-.417 1.202-.628 1.4-.628.4 0 .604.336.652 1.004.075.808.05 1.352-.07 1.637-.103.223-.387.485-.85.78-1.028.672-2.526 1.486-4.494 2.44-2.8 1.34-4.803 2.017-6.042 2.017-1.076 0-1.925-.603-2.55-1.794-1.388-1.06-2.08-2-2.08-2.797 0-1.432 1.57-3.568 4.72-6.42 2.204-2.027 4.793-4.07 7.763-6.13-1.36-3.565-2.036-6.42-2.036-8.568 0-.687.93-1.03 2.796-1.03.778 0 1.545.055 2.303.157.703.1 1.022.336.964.737 1.98.092 3.386.37 4.206.83a1.33 1.33 0 0 1 .739 1.253c0 .18-.077.946-.225 2.305-.075.596-.665 1.358-1.768 2.28-.55.464-1.872 1.45-3.96 2.955l.57 1.296.572 1.322a56.6 56.6 0 0 0 2.327.044c4.666 0 7.57-.288 8.702-.873.714-.372 1.103-.76 1.164-1.16.06-.256.27-.38.626-.38.316 0 .47.193.47.58 0 .595-.103 1.3-.3 2.147-.27 1.015-.6 1.673-.986 1.97-.225.18-1.448.277-3.67.292l-3.894-.025c-1.103.015-2.137.062-3.108.135 1.835 3.76 3.572 6.866 5.213 9.332 1.848 2.772 3.23 4.16 4.14 4.16.834-.02 1.828-.464 2.973-1.345a.81.81 0 0 1 .449-.131c.373 0 .56.157.56.467.001.167-.074.364-.222.583M113.86 217.75c.077-.42-.542-.92-1.855-1.5-1.2-.522-2.1-.782-2.64-.782-1.044 0-1.565.482-1.565 1.454 0 .895.462 2.586 1.388 5.077 1.207-.822 2.295-1.7 3.265-2.62.88-.833 1.348-1.38 1.408-1.63" fill="#fcb23b"/></svg>